<svg width="34" height="34" xmlns="http://www.w3.org/2000/svg" viewBox="54.088037109374994 14 391.82392578125 122" style="background: rgb(255, 255, 255);" preserveAspectRatio="xMidYMid"><defs><linearGradient id="editing-glowing-gradient" x1="0.6461858523613686" x2="0.35381414763863145" y1="0.9781523779815177" y2="0.021847622018482338"><stop offset="0" stop-color="#ad00e7"></stop><stop offset="1" stop-color="#45224f"></stop></linearGradient><filter id="editing-glowing" x="-100%" y="-100%" width="300%" height="300%"><feGaussianBlur in="SourceGraphic" result="blur" stdDeviation="1"></feGaussianBlur><feMerge><feMergeNode in="blur"></feMergeNode><feMergeNode in="SourceGraphic"></feMergeNode></feMerge></filter></defs><g filter="url(#editing-glowing)"><g transform="translate(113.6131043434143, 97.46500015258789)"><path d="M6.21-31.17L6.21-31.17L6.21-31.17Q4.03-32.83 4.03-36.38L4.03-36.38L4.03-36.38Q4.03-39.94 6.37-41.79L6.37-41.79L6.37-41.79Q8.70-43.65 12.74-43.65L12.74-43.65L12.74-43.65Q15.30-43.65 21.38-42.75L21.38-42.75L25.73-42.11L25.73-42.11Q27.90-41.86 30.18-41.86L30.18-41.86L30.18-41.86Q32.45-41.86 33.98-42.82L33.98-42.82L33.98-42.82Q36.29-40.77 36.29-37.82L36.29-37.82L36.29-37.82Q36.29-34.88 33.66-32.77L33.66-32.77L33.66-32.77Q30.98-30.53 27.52-30.53L27.52-30.53L27.52-30.53Q25.86-30.53 23.17-30.98L23.17-30.98L23.17-30.98Q20.03-21.12 20.03-14.27L20.03-14.27L20.03-14.27Q20.03-7.42 23.49-3.84L23.49-3.84L23.49-3.84Q21.89-0.96 19.52 0.16L19.52 0.16L19.52 0.16Q17.15 1.28 13.60 1.28L13.60 1.28L13.60 1.28Q10.05 1.28 7.84-0.67L7.84-0.67L7.84-0.67Q5.63-2.62 5.63-6.66L5.63-6.66L5.63-6.66Q5.63-11.33 8.19-19.01L8.19-19.01L8.19-19.01Q10.75-26.62 14.59-32.45L14.59-32.45L14.59-32.45Q12.74-32.64 10.82-32.64L10.82-32.64L10.82-32.64Q6.85-32.64 6.21-31.17ZM61.31 1.28L61.31 1.28L61.31 1.28Q53.12 1.28 52.35-10.37L52.35-10.37L41.34-10.37L41.34-10.37Q40.06-7.42 39.17-4.86L39.17-4.86L37.50 0L28.54 0L48.70-42.24L62.46-42.24L65.15-11.14L65.15-11.14Q65.79-4.42 68.35-2.43L68.35-2.43L68.35-2.43Q66.50 1.28 61.31 1.28ZM46.85-23.17L43.33-15.04L52.16-15.04L51.39-31.49L51.39-33.22L46.85-23.17ZM85.31 0L71.36 0L79.49-42.24L93.57-42.24L85.31 0ZM100.10-31.17L100.10-31.17L100.10-31.17Q97.92-32.83 97.92-36.38L97.92-36.38L97.92-36.38Q97.92-39.94 100.26-41.79L100.26-41.79L100.26-41.79Q102.59-43.65 106.62-43.65L106.62-43.65L106.62-43.65Q109.18-43.65 115.26-42.75L115.26-42.75L119.62-42.11L119.62-42.11Q121.79-41.86 124.06-41.86L124.06-41.86L124.06-41.86Q126.34-41.86 127.87-42.82L127.87-42.82L127.87-42.82Q130.18-40.77 130.18-37.82L130.18-37.82L130.18-37.82Q130.18-34.88 127.55-32.77L127.55-32.77L127.55-32.77Q124.86-30.53 121.41-30.53L121.41-30.53L121.41-30.53Q119.74-30.53 117.06-30.98L117.06-30.98L117.06-30.98Q113.92-21.12 113.92-14.27L113.92-14.27L113.92-14.27Q113.92-7.42 117.38-3.84L117.38-3.84L117.38-3.84Q115.78-0.96 113.41 0.16L113.41 0.16L113.41 0.16Q111.04 1.28 107.49 1.28L107.49 1.28L107.49 1.28Q103.94 1.28 101.73-0.67L101.73-0.67L101.73-0.67Q99.52-2.62 99.52-6.66L99.52-6.66L99.52-6.66Q99.52-11.33 102.08-19.01L102.08-19.01L102.08-19.01Q104.64-26.62 108.48-32.45L108.48-32.45L108.48-32.45Q106.62-32.64 104.70-32.64L104.70-32.64L104.70-32.64Q100.74-32.64 100.10-31.17ZM129.34-9.47L129.34-9.47L129.34-9.47Q129.34-11.97 129.98-15.17L129.98-15.17L135.17-42.24L149.31-42.24L144.19-14.98L144.19-14.98Q143.62-11.97 143.62-9.76L143.62-9.76L143.62-9.76Q143.62-7.55 144.54-6.40L144.54-6.40L144.54-6.40Q145.47-5.25 147.20-5.25L147.20-5.25L147.20-5.25Q148.93-5.25 150.02-5.70L150.02-5.70L150.02-5.70Q151.10-6.14 152-7.23L152-7.23L152-7.23Q153.73-9.41 154.82-14.98L154.82-14.98L160-42.24L169.66-42.24L164.54-15.04L164.54-15.04Q162.75-5.95 157.82-2.30L157.82-2.30L157.82-2.30Q153.02 1.28 143.55 1.28L143.55 1.28L143.55 1.28Q136.45 1.28 132.67-1.79L132.67-1.79L132.67-1.79Q129.34-4.48 129.34-9.47ZM184.06 0L170.37 0L178.18-42.05L178.18-42.05Q184.51-42.75 193.76-42.75L193.76-42.75L193.76-42.75Q203.01-42.75 207.30-40.06L207.30-40.06L207.30-40.06Q211.58-37.38 211.58-31.97L211.58-31.97L211.58-31.97Q211.58-26.56 208.80-23.17L208.80-23.17L208.80-23.17Q206.02-19.78 201.22-18.69L201.22-18.69L201.22-18.69Q202.30-13.38 204.80-9.09L204.80-9.09L204.80-9.09Q207.10-5.06 209.79-3.78L209.79-3.78L209.79-3.78Q208.83-1.09 206.88 0.10L206.88 0.10L206.88 0.10Q204.93 1.28 202.14 1.28L202.14 1.28L202.14 1.28Q199.36 1.28 197.18-0.35L197.18-0.35L197.18-0.35Q195.01-1.98 193.28-4.99L193.28-4.99L193.28-4.99Q189.63-11.52 189.25-21.82L189.25-21.82L189.70-21.82L189.70-21.82Q194.43-21.95 196.80-24.42L196.80-24.42L196.80-24.42Q199.17-26.88 199.17-32.06L199.17-32.06L199.17-32.06Q199.17-38.53 193.73-38.78L193.73-38.78L192.32-38.78L192.32-38.78Q191.74-38.78 191.42-38.72L191.42-38.72L184.06 0ZM227.78 0L213.82 0L221.95-42.24L236.03-42.24L227.78 0ZM242.56-31.17L242.56-31.17L242.56-31.17Q240.38-32.83 240.38-36.38L240.38-36.38L240.38-36.38Q240.38-39.94 242.72-41.79L242.72-41.79L242.72-41.79Q245.06-43.65 249.09-43.65L249.09-43.65L249.09-43.65Q251.65-43.65 257.73-42.75L257.73-42.75L262.08-42.11L262.08-42.11Q264.26-41.86 266.53-41.86L266.53-41.86L266.53-41.86Q268.80-41.86 270.34-42.82L270.34-42.82L270.34-42.82Q272.64-40.77 272.64-37.82L272.64-37.82L272.64-37.82Q272.64-34.88 270.02-32.77L270.02-32.77L270.02-32.77Q267.33-30.53 263.87-30.53L263.87-30.53L263.87-30.53Q262.21-30.53 259.52-30.98L259.52-30.98L259.52-30.98Q256.38-21.12 256.38-14.27L256.38-14.27L256.38-14.27Q256.38-7.42 259.84-3.84L259.84-3.84L259.84-3.84Q258.24-0.96 255.87 0.16L255.87 0.16L255.87 0.16Q253.50 1.28 249.95 1.28L249.95 1.28L249.95 1.28Q246.40 1.28 244.19-0.67L244.19-0.67L244.19-0.67Q241.98-2.62 241.98-6.66L241.98-6.66L241.98-6.66Q241.98-11.33 244.54-19.01L244.54-19.01L244.54-19.01Q247.10-26.62 250.94-32.45L250.94-32.45L250.94-32.45Q249.09-32.64 247.17-32.64L247.17-32.64L247.17-32.64Q243.20-32.64 242.56-31.17Z" fill="url(#editing-glowing-gradient)"></path></g></g><style>text {
  font-size: 64px;
  font-family: Arial Black;
  dominant-baseline: central;
  text-anchor: middle;
}</style></svg>